<svg width="38" height="38" viewBox="0 0 38 38" fill="none" xmlns="http://www.w3.org/2000/svg">
<path fill-rule="evenodd" clip-rule="evenodd" d="M10.034 9.39356C10.6524 10.0118 10.6526 11.0143 10.0344 11.6327C8.26332 13.4044 7.05735 15.6614 6.56894 18.1183C6.08053 20.5753 6.33161 23.1219 7.29044 25.4362C8.24927 27.7505 9.87279 29.7285 11.9557 31.1202C14.0387 32.5118 16.4875 33.2546 18.9925 33.2546C21.4976 33.2546 23.9464 32.5118 26.0293 31.1202C28.1122 29.7285 29.7358 27.7505 30.6946 25.4362C31.6534 23.1219 31.9045 20.5753 31.4161 18.1183C30.9277 15.6614 29.7217 13.4044 27.9507 11.6327C27.3324 11.0143 27.3326 10.0118 27.951 9.39356C28.5695 8.77533 29.572 8.77549 30.1902 9.39392C32.404 11.6085 33.9115 14.4297 34.522 17.5009C35.1325 20.5721 34.8187 23.7554 33.6201 26.6483C32.4216 29.5412 30.3922 32.0137 27.7885 33.7533C25.1848 35.4928 22.1238 36.4213 18.9925 36.4213C15.8612 36.4213 12.8002 35.4928 10.1965 33.7533C7.59286 32.0137 5.56346 29.5412 4.36492 26.6483C3.16638 23.7554 2.85253 20.5721 3.46304 17.5009C4.07356 14.4297 5.58102 11.6085 7.79484 9.39392C8.41306 8.77549 9.41558 8.77533 10.034 9.39356Z" fill="#0071BC"/>
<path fill-rule="evenodd" clip-rule="evenodd" d="M19.0003 1.58331C19.8748 1.58331 20.5837 2.2922 20.5837 3.16665V19C20.5837 19.8744 19.8748 20.5833 19.0003 20.5833C18.1259 20.5833 17.417 19.8744 17.417 19V3.16665C17.417 2.2922 18.1259 1.58331 19.0003 1.58331Z" fill="#0071BC"/>
</svg>
