<svg xmlns="http://www.w3.org/2000/svg"  viewBox="0 0 64 64" width="50px" height="50px"><path fill="#faefde" d="M35.44,29.28h0c-.22,0-.91-.57-1.27-1.93s0-2.28.13-2.32c0,0,1.32-.23,1.34-.49a9,9,0,0,1,.13-1.14,4.24,4.24,0,0,0-.06-1.21,15.6,15.6,0,0,1-.09-3.79c.23-2.35,1.61-3.75,3.7-3.75a.73.73,0,0,0,.44-.15,8.89,8.89,0,0,1,4.7-1.32h.74c4.47,0,7.69,2.28,9,6.31-.51-.06-.34.3-.7.65s-1.24.49-.91,1.4a8.91,8.91,0,0,1,.66,3c0,.26,1.32-.2,1.33-.2a4.69,4.69,0,0,1,.14,3c-.36,1.36-1.06,1.93-1.27,1.93a.76.76,0,0,0-.71.53,15.14,15.14,0,0,1-3.15,5.72c3.08,1.73-5.83,3.6-6.25,3.6-3.81,0-5.95-5.15-7.19-9.32A.74.74,0,0,0,35.44,29.28Z"/><path fill="#cda1a7" d="M36.36,21.4a4.82,4.82,0,0,0,4.23-3.23c1.94.65,2.58,2.58,11.63,1.94.9-.06,1,.25,1.29,0s-.47-1.3,0-1.25A8.23,8.23,0,0,0,45.15,13h-.68a8.25,8.25,0,0,0-4.36,1.23.68.68,0,0,1-.41.14c-1.93,0-3.21,1.3-3.43,3.48a14.48,14.48,0,0,0,.09,3.52Z"/><path fill="#c2cde7" d="M63,47.73v2.39A1.88,1.88,0,0,1,61.12,52H19c-1.1,0-2,.1-2-1V48.73a10.34,10.34,0,0,1,5-8.86l9.45-5.69c2.39,3,5.55,5.17,9.05,5.17s6.66-2.15,9.05-5.17L59,39.88C62.1,41.75,63,44.11,63,47.73Z"/><path fill="#faefde" d="M11.44,29.28h0c-.22,0-.91-.57-1.27-1.93s0-2.28.13-2.32c0,0,1.32-.23,1.34-.49a9,9,0,0,1,.13-1.14,4.24,4.24,0,0,0-.06-1.21,15.6,15.6,0,0,1-.09-3.79c.23-2.35,1.61-3.75,3.7-3.75a.73.73,0,0,0,.44-.15,8.89,8.89,0,0,1,4.7-1.32h.74c4.47,0,7.69,2.28,9,6.31-.51-.06-.34.3-.7.65s-1.24.49-.91,1.4a8.91,8.91,0,0,1,.66,3c0,.26,1.32-.2,1.33-.2a4.69,4.69,0,0,1,.14,3c-.36,1.36-1.06,1.93-1.27,1.93a.76.76,0,0,0-.71.53,15.14,15.14,0,0,1-3.15,5.72c3.08,1.73-5.83,3.6-6.25,3.6-3.81,0-5.95-5.15-7.19-9.32A.74.74,0,0,0,11.44,29.28Z"/><path fill="#acb7d0" d="M59,47H21a4,4,0,0,0-4,4h0a1,1,0,0,0,1,1H62a1,1,0,0,0,1-1h0A4,4,0,0,0,59,47Z"/><path fill="#c2cde7" d="M47,48.15v2.39a1.88,1.88,0,0,1-1.88,1.88H3a2,2,0,0,1-2-2V48.15c0-3.62.9-7,4-8.86l9.45-5.69c2.39,3,5.55,5.17,9.05,5.17s6.66-2.15,9.05-5.17L42,39.29A10.34,10.34,0,0,1,47,48.15Z"/><path fill="#cda1a7" d="M12.36,21.4a4.82,4.82,0,0,0,4.23-3.23c1.94.65,2.58,2.58,11.63,1.94.9-.06,1,.25,1.29,0s-.47-1.3,0-1.25A8.23,8.23,0,0,0,21.15,13h-.68a8.25,8.25,0,0,0-4.36,1.23.68.68,0,0,1-.41.14c-1.93,0-3.21,1.3-3.43,3.48a14.48,14.48,0,0,0,.09,3.52Z"/><path fill="#acb7d0" d="M43,47H5a4,4,0,0,0-4,4H1a1,1,0,0,0,1,1H46a1,1,0,0,0,1-1h0A4,4,0,0,0,43,47Z"/><path fill="#8b8e98" d="M55,48.44v8H9v-8a10.12,10.12,0,0,1,4.9-8.67l9.24-5.57c2.34,3,5.43,5.06,8.86,5.06s6.52-2.11,8.86-5.06l9.24,5.57A10.12,10.12,0,0,1,55,48.44Z"/><path fill="#989ba3" d="M41.45,39.35,32,44.07l-9.45-4.73a2.76,2.76,0,0,1-.72-4.42l.05-.05H42.12l.05.05A2.76,2.76,0,0,1,41.45,39.35Z"/><path fill="#faefde" d="M20.79,27h0c-.27,0-1.13-.71-1.59-2.4s0-2.83.17-2.89c0,0,1.65-.29,1.66-.62a11.15,11.15,0,0,1,.16-1.41,5.28,5.28,0,0,0-.07-1.5A19.43,19.43,0,0,1,21,13.5c.29-2.92,2-4.67,4.6-4.67a.91.91,0,0,0,.55-.18A11.07,11.07,0,0,1,32,7h.92c5.56,0,9.58,2.84,11.22,7.86-.63-.07-.42.37-.87.8s-1.55.61-1.13,1.74A11.1,11.1,0,0,1,43,21.14c0,.33,1.64-.25,1.66-.25a5.84,5.84,0,0,1,.17,3.76c-.45,1.69-1.32,2.4-1.59,2.4a.94.94,0,0,0-.88.66C40.78,32.89,36.74,38.14,32,38.14S23.22,32.89,21.67,27.7A.92.92,0,0,0,20.79,27Z"/><path fill="#cda1a7" d="M21.13,18.27a6.47,6.47,0,0,0,5.67-4.33c2.6.87,3.47,3.47,15.6,2.6,1.2-.09,1.38.34,1.73,0s-.63-1.74,0-1.67C42.49,9.84,38.48,7,32.92,7H32a11.07,11.07,0,0,0-5.85,1.65.91.91,0,0,1-.55.18C23,8.83,21.3,10.58,21,13.5a19.43,19.43,0,0,0,.12,4.72Z"/><path fill="#7e8189" d="M51 52H13a4 4 0 0 0-4 4H9a1 1 0 0 0 1 1H54a1 1 0 0 0 1-1h0A4 4 0 0 0 51 52zM21.19 12.73l-.66 4.33a.86.86 0 0 0 .85 1l3.82 0a6.89 6.89 0 0 1 3.14.73l2.92 1.46a1.72 1.72 0 0 0 1.54 0l2.92-1.46A6.89 6.89 0 0 1 38.85 18l4.09 0a.86.86 0 0 0 .85-1l-.7-4.58"/><path fill="#8b8e98" d="M31.16,15.19l-14.47-5a.77.77,0,0,1,0-1.46l14.47-5a3.09,3.09,0,0,1,2,0l14.47,5a.77.77,0,0,1,0,1.46l-14.47,5A3.09,3.09,0,0,1,31.16,15.19Z"/><path fill="#8d6c9f" d="M59.34,38.56l-7.77-5a15.41,15.41,0,0,0,1.88-3.79,4.18,4.18,0,0,0,2-2.81c.55-2,0-3.8-1.3-4.15l-.09,0a9,9,0,0,0-.42-1.62l.29.1a1,1,0,0,0,1-.16,1,1,0,0,0,.34-1A9.76,9.76,0,0,0,45.58,12L48,11.17a1.77,1.77,0,0,0,0-3.35l-14.47-5a4.11,4.11,0,0,0-2.66,0l-14.47,5a1.77,1.77,0,0,0,0,3.35l2.68.92a9.29,9.29,0,0,0-3.55,1.23c-2.58.14-4.4,2-4.69,4.9A15.89,15.89,0,0,0,10.9,22c0,.24.07.53.06.59l0,.14-.09,0a2.12,2.12,0,0,0-1.43,1.77,5.34,5.34,0,0,0,.13,2.39,4.2,4.2,0,0,0,2,2.81,15.86,15.86,0,0,0,1.57,3.31L4.58,38.56A10,10,0,0,0,0,47v3.21A2.81,2.81,0,0,0,2.81,53H8v2a3,3,0,0,0,3,3H53a3,3,0,0,0,3-3V53h5.11a2.81,2.81,0,0,0,2.81-2.81V47A10,10,0,0,0,59.34,38.56ZM37.8,34.2A8.08,8.08,0,0,1,32,37.13a8.15,8.15,0,0,1-5.77-3A16.5,16.5,0,0,1,25,32.6a18,18,0,0,1-2.53-5.2,1.1,1.1,0,0,0-1-.71c-.23,0-1-.7-1.36-2.16a3.71,3.71,0,0,1,0-2.54.67.67,0,0,1,.17.08,1,1,0,0,0,1,0,1,1,0,0,0,.54-.84l0-.61c0-.38,0-1.07.06-1.62l3.27,0a6.15,6.15,0,0,1,2.68.62l2.92,1.46a2.73,2.73,0,0,0,2.44,0l2.92-1.46A5.83,5.83,0,0,1,38.84,19l3.28,0c0,.54,0,1.2.06,1.58l0,.66a1,1,0,0,0,.54.84,1,1,0,0,0,1,0l.12-.07a3.39,3.39,0,0,1,.06,2.53c-.39,1.46-1.13,2.14-1.36,2.16a1,1,0,0,0-1,.71,18.18,18.18,0,0,1-2.52,5.23A13.07,13.07,0,0,1,37.8,34.2Zm4.38-21,.6,3.9-3.92,0a8.21,8.21,0,0,0-3.59.83l-2.92,1.46a.73.73,0,0,1-.65,0l-2.92-1.46A8.14,8.14,0,0,0,25.19,17l-3.65,0,.6-3.9,8.7,3a4.12,4.12,0,0,0,2.66,0ZM31.49,4.74a2.1,2.1,0,0,1,1.36,0L46.69,9.49,32.85,14.24a2.1,2.1,0,0,1-1.36,0L17.64,9.49ZM2.81,51A.81.81,0,0,1,2,50.19V47a8,8,0,0,1,3.67-6.74l8.61-5.57a12.19,12.19,0,0,0,.84.92,1,1,0,1,0,1.39-1.44,13,13,0,0,1-3.24-5.51.93.93,0,0,0-.91-.71h0a2.46,2.46,0,0,1-.89-1.51,3.1,3.1,0,0,1-.07-1.59A1,1,0,0,0,12.82,24a7.76,7.76,0,0,1,.11-1,4.09,4.09,0,0,0-.05-1.19,13.87,13.87,0,0,1-.08-3.37c.2-2,1.3-3.11,3-3.11a1,1,0,0,0,.6-.2A7.61,7.61,0,0,1,20,14l-.45,2.92A1.86,1.86,0,0,0,20,18.4h0c0,.38-.06.89-.08,1.6l-.22,0c-1.52.41-2.14,2.51-1.48,5a5,5,0,0,0,2.51,3.48,20.07,20.07,0,0,0,2.54,5.07l-8.75,5.07A13,13,0,0,0,8,49.92V51ZM54,55a1,1,0,0,1-1,1H11a1,1,0,0,1-1-1V49.92a11,11,0,0,1,5.49-9.52l9-5.21c2.06,2.34,4.67,3.94,7.54,3.94s5.47-1.59,7.52-3.92l9,5.19A11,11,0,0,1,54,49.92V55Zm7.92-4.81a.81.81,0,0,1-.81.81H56V49.92a13,13,0,0,0-6.49-11.25l-8.72-5a19.43,19.43,0,0,0,2.55-5.09A5,5,0,0,0,45.85,25a6.53,6.53,0,0,0,.16-3,2.46,2.46,0,0,0-1.64-2l-.22,0c0-.57,0-1-.05-1.36a1.81,1.81,0,0,0,.68-1.73L44.33,14h.83a7.72,7.72,0,0,1,7.71,5,1.57,1.57,0,0,0-1,.43,1.65,1.65,0,0,0-.28,1.89A8,8,0,0,1,52.16,24a1,1,0,0,0,.57.83,1.06,1.06,0,0,0,.84,0,3.06,3.06,0,0,1-.07,1.6,2.72,2.72,0,0,1-.84,1.5,1,1,0,0,0-.95.72,13.63,13.63,0,0,1-1.84,3.84,11.12,11.12,0,0,1-1.17,1.44,9.46,9.46,0,0,1-.89.81,1,1,0,0,0,.62,1.78A1,1,0,0,0,49,36.3a10.08,10.08,0,0,0,1.27-1.19l7.93,5.13A8,8,0,0,1,61.92,47Z"/><path fill="#8d6c9f" d="M39.55 39.11L32 42.88l-7.55-3.78a1 1 0 0 0-.89 1.79l8 4a1 1 0 0 0 .89 0l8-4a1 1 0 1 0-.89-1.79zM47 50a1 1 0 0 0-1 1v2a1 1 0 0 0 2 0V51A1 1 0 0 0 47 50zM52 50a1 1 0 0 0-1 1v2a1 1 0 0 0 2 0V51A1 1 0 0 0 52 50zM42 50a1 1 0 0 0-1 1v2a1 1 0 0 0 2 0V51A1 1 0 0 0 42 50zM37 50a1 1 0 0 0-1 1v2a1 1 0 0 0 2 0V51A1 1 0 0 0 37 50zM32 50a1 1 0 0 0-1 1v2a1 1 0 0 0 2 0V51A1 1 0 0 0 32 50zM27 50a1 1 0 0 0-1 1v2a1 1 0 0 0 2 0V51A1 1 0 0 0 27 50zM22 50a1 1 0 0 0-1 1v2a1 1 0 0 0 2 0V51A1 1 0 0 0 22 50zM17 50a1 1 0 0 0-1 1v2a1 1 0 0 0 2 0V51A1 1 0 0 0 17 50zM12 50a1 1 0 0 0-1 1v2a1 1 0 0 0 2 0V51A1 1 0 0 0 12 50zM32.47 10.44l5.25-1.65a1 1 0 1 0-.6-1.91L31.87 8.54a1 1 0 1 0 .6 1.91z"/></svg>