<svg xmlns="http://www.w3.org/2000/svg"  viewBox="0 0 64 64" width="50px" height="50px"><path fill="#72caaf" d="M11 5H61V39H11z"/><path fill="#84d5b5" d="M60 19.57L40.57 39 58.79 39 60 37.79 60 19.57zM60 7.43L28.43 39 35.71 39 60 14.71 60 7.43zM51.5 5L17.5 39 23.57 39 57.57 5 51.5 5z"/><rect width="54" height="6" x="9" y="39" fill="#cda1a7" rx="2" ry="2"/><path fill="#faefde" d="M11 9A5 5 0 1 0 11 19A5 5 0 1 0 11 9Z"/><path fill="#85cbf8" d="M18,41V29.63l2.46,1.66A10,10,0,0,0,26.06,33H30.5A2.5,2.5,0,0,0,33,30.5h0A2.5,2.5,0,0,0,30.5,28h-3a5,5,0,0,1-2.93-1l-4.16-3a10,10,0,0,0-3.12-1.52l-1.37-.39a14.31,14.31,0,0,0-7.86,0h0A10,10,0,0,0,3,25.49H3a9.16,9.16,0,0,0-2,5.72V40.5A2.5,2.5,0,0,0,3.5,43h0A2.5,2.5,0,0,0,6,40.5V41L5.14,59.86a3,3,0,0,0,3,3.14h0a3,3,0,0,0,3-2.85L12,43h0l.86,17.15a3,3,0,0,0,3,2.85h0a3,3,0,0,0,3-3.14Z"/><path fill="#8d6c9f" d="M51 12.06a1 1 0 0 0 1-1v-2a1 1 0 0 0-2 0v2A1 1 0 0 0 51 12.06zM46 12.06a1 1 0 0 0 1-1v-2a1 1 0 0 0-2 0v2A1 1 0 0 0 46 12.06zM56 12.06a1 1 0 0 0 1-1v-2a1 1 0 0 0-2 0v2A1 1 0 0 0 56 12.06zM41 8.06a1 1 0 0 0-1 1v2a1 1 0 1 0 2 0v-2A1 1 0 0 0 41 8.06zM36 8.06a1 1 0 0 0-1 1v2a1 1 0 1 0 2 0v-2A1 1 0 0 0 36 8.06zM31 8.06a1 1 0 0 0-1 1v2a1 1 0 1 0 2 0v-2A1 1 0 0 0 31 8.06zM26 8.06a1 1 0 0 0-1 1v2a1 1 0 1 0 2 0v-2A1 1 0 0 0 26 8.06zM21 8.06a1 1 0 0 0-1 1v2a1 1 0 1 0 2 0v-2A1 1 0 0 0 21 8.06zM26 38.06H22a1 1 0 0 0 0 2h4a1 1 0 0 0 0-2z"/><path fill="#8d6c9f" d="M62,38.23V7.06a3,3,0,0,0-3-3H13a3,3,0,0,0-3,3v1a6,6,0,0,0,0,11.82v.8a15.3,15.3,0,0,0-2.21.46,10.94,10.94,0,0,0-5.57,3.71A10.2,10.2,0,0,0,0,31.21V40.5a3.5,3.5,0,0,0,4.88,3.22l-.73,16.1A4,4,0,0,0,12,61.08a4,4,0,0,0,7.86-1.26l-.63-13.76H61a3,3,0,0,0,3-3v-2A3,3,0,0,0,62,38.23ZM6.71,14A4.29,4.29,0,1,1,11,18.29,4.3,4.3,0,0,1,6.71,14ZM17,41l.86,18.86A2,2,0,0,1,15.68,62a2.07,2.07,0,0,1-1.83-2L13,43a1,1,0,0,0-2,0l-.85,17a2.1,2.1,0,0,1-1.82,2,2,2,0,0,1-2.19-2.08L7,41V29.67a1,1,0,0,0-2,0V40.5a1.5,1.5,0,0,1-3,0v-9A8.56,8.56,0,0,1,3.86,26a9,9,0,0,1,4.48-2.94,13.3,13.3,0,0,1,7.31,0l.4.12a14.74,14.74,0,0,1,4.6,2.24L24,27.86A6,6,0,0,0,27.52,29H30.6l-.28.25a1,1,0,0,0,1.35,1.47l.32-.29s0,0,0,.05A1.5,1.5,0,0,1,30.5,32H26.06a9,9,0,0,1-5-1.54L18.56,28.8a1,1,0,0,0-1.56.83V41S17,41,17,41Zm45,2a1,1,0,0,1-1,1H19.14L19,41V31.51l.91.61A11,11,0,0,0,26.06,34h4.29a3.63,3.63,0,0,0,3.42-2.29A3.37,3.37,0,0,0,33.62,29l10.05-9.22a1,1,0,1,0-1.35-1.47L32.26,27.49A3.46,3.46,0,0,0,30.5,27h-3a4,4,0,0,1-2.35-.76L22,23.93a17.83,17.83,0,0,0-5.56-2.71l-.22-.06A15.3,15.3,0,0,0,12,20.57v-.66a6,6,0,0,0,4.59-8.07,1,1,0,0,0,.41-.78v-2a1,1,0,0,0-2,0v.48a6,6,0,0,0-3-1.45v-1a1,1,0,0,1,1-1H59a1,1,0,0,1,1,1v31H30a1,1,0,0,0,0,2H61a1,1,0,0,1,1,1Z"/></svg>